# xmcd
#
# Track frame offsets: 
#        150
#        32090
#        44270
#        59652
#        76600
#        94157
#        113085
#        129320
#        144897
#        163955
#
# Disc length: 2569 seconds
#
# Revision: 8
# Processed by: cddbd v1.5.2PL0 Copyright (c) Steve Scherf et al.
# Submitted via: ExactAudioCopy v1.3
#
DISCID=7d0a070a
DTITLE=Stevie Wonder - Songs In The Key Of Life
DYEAR=1976
DGENRE=Soul
TTITLE0=Love's In Need Of Love Today
TTITLE1=Have A Talk With God
TTITLE2=Village Ghetto Land
TTITLE3=Contusion
TTITLE4=Sir Duke
TTITLE5=I Wish
TTITLE6=Knocks Me Off My Feet
TTITLE7=Pastime Paradise
TTITLE8=Summer Soft
TTITLE9=Ordinary Pain
EXTD=YEAR: 1976
EXTT0=
EXTT1=
EXTT2=
EXTT3=
EXTT4=
EXTT5=
EXTT6=
EXTT7=
EXTT8=
EXTT9=
PLAYORDER=
